<svg xmlns="http://www.w3.org/2000/svg" xmlns:xlink="http://www.w3.org/1999/xlink" width="500" zoomAndPan="magnify" viewBox="0 0 375 374.999991" height="500" preserveAspectRatio="xMidYMid meet" version="1.0"><defs><g/><clipPath id="2bd8779064"><path d="M 46 151.25 L 74 151.25 L 74 188 L 46 188 Z M 46 151.25 " clip-rule="nonzero"/></clipPath><clipPath id="c48cf6b311"><path d="M 24.066406 174 L 61 174 L 61 201 L 24.066406 201 Z M 24.066406 174 " clip-rule="nonzero"/></clipPath><clipPath id="5c045500f4"><path d="M 60 174 L 96.816406 174 L 96.816406 201 L 60 201 Z M 60 174 " clip-rule="nonzero"/></clipPath></defs><path fill="#a6a6a6" d="M 68.207031 223.707031 L 52.398438 223.707031 C 49.347656 223.707031 46.847656 221.207031 46.847656 218.15625 L 46.847656 210.484375 L 50.546875 210.484375 L 50.546875 218.15625 C 50.546875 219.175781 51.378906 220.007812 52.398438 220.007812 L 68.207031 220.007812 C 69.226562 220.007812 70.058594 219.175781 70.058594 218.15625 L 70.058594 187.496094 L 73.757812 187.496094 L 73.757812 218.15625 C 73.757812 221.207031 71.277344 223.707031 68.207031 223.707031 Z M 68.207031 223.707031 " fill-opacity="1" fill-rule="nonzero"/><g clip-path="url(#2bd8779064)"><path fill="#03989e" d="M 50.546875 187.496094 L 46.847656 187.496094 L 46.847656 156.835938 C 46.847656 153.785156 49.347656 151.285156 52.398438 151.285156 L 68.207031 151.285156 C 71.261719 151.285156 73.757812 153.785156 73.757812 156.835938 L 73.757812 164.507812 L 70.058594 164.507812 L 70.058594 156.835938 C 70.058594 155.816406 69.226562 154.984375 68.207031 154.984375 L 52.398438 154.984375 C 51.378906 154.984375 50.546875 155.816406 50.546875 156.835938 Z M 50.546875 187.496094 " fill-opacity="1" fill-rule="nonzero"/></g><g clip-path="url(#c48cf6b311)"><path fill="#03989e" d="M 60.3125 200.957031 L 29.652344 200.957031 C 26.597656 200.957031 24.101562 198.460938 24.101562 195.410156 L 24.101562 179.601562 C 24.101562 176.546875 26.597656 174.050781 29.652344 174.050781 L 37.324219 174.050781 L 37.324219 177.75 L 29.652344 177.75 C 28.632812 177.75 27.800781 178.582031 27.800781 179.601562 L 27.800781 195.410156 C 27.800781 196.429688 28.632812 197.261719 29.652344 197.261719 L 60.3125 197.261719 Z M 60.3125 200.957031 " fill-opacity="1" fill-rule="nonzero"/></g><g clip-path="url(#5c045500f4)"><path fill="#a6a6a6" d="M 90.972656 200.957031 L 83.296875 200.957031 L 83.296875 197.261719 L 90.972656 197.261719 C 91.992188 197.261719 92.824219 196.429688 92.824219 195.410156 L 92.824219 179.601562 C 92.824219 178.582031 91.992188 177.75 90.972656 177.75 L 60.3125 177.75 L 60.3125 174.050781 L 90.972656 174.050781 C 94.023438 174.050781 96.519531 176.546875 96.519531 179.601562 L 96.519531 195.410156 C 96.519531 198.460938 94.023438 200.957031 90.972656 200.957031 Z M 90.972656 200.957031 " fill-opacity="1" fill-rule="nonzero"/></g><g fill="#03989e" fill-opacity="1"><g transform="translate(104.167167, 192.41278)"><g><path d="M 23.53125 0 L 20.453125 0 L 20.421875 -14.796875 L 14.171875 -2.0625 L 11.984375 -2.0625 L 5.734375 -14.796875 L 5.734375 0 L 2.609375 0 L 2.609375 -19.796875 L 6.5625 -19.796875 L 13.09375 -6.640625 L 19.59375 -19.796875 L 23.53125 -19.796875 Z M 23.53125 0 "/></g></g></g><g fill="#03989e" fill-opacity="1"><g transform="translate(134.554462, 192.41278)"><g><path d="M 16.75 -16.796875 L 5.9375 -16.796875 L 5.9375 -11.453125 L 15.609375 -11.453125 L 15.609375 -8.453125 L 5.9375 -8.453125 L 5.9375 -3 L 17.078125 -3 L 17.078125 0 L 2.609375 0 L 2.609375 -19.796875 L 16.75 -19.796875 Z M 16.75 -16.796875 "/></g></g></g><g fill="#03989e" fill-opacity="1"><g transform="translate(157.338291, 192.41278)"><g><path d="M 2.609375 -19.796875 L 10.71875 -19.796875 C 13.675781 -19.796875 16.117188 -18.863281 18.046875 -17 C 19.984375 -15.132812 20.953125 -12.765625 20.953125 -9.890625 C 20.953125 -7.023438 19.976562 -4.660156 18.03125 -2.796875 C 16.09375 -0.929688 13.628906 0 10.640625 0 L 2.609375 0 Z M 5.9375 -16.796875 L 5.9375 -3 L 10.796875 -3 C 12.742188 -3 14.363281 -3.644531 15.65625 -4.9375 C 16.945312 -6.226562 17.59375 -7.875 17.59375 -9.875 C 17.59375 -11.875 16.925781 -13.523438 15.59375 -14.828125 C 14.269531 -16.140625 12.625 -16.796875 10.65625 -16.796875 Z M 5.9375 -16.796875 "/></g></g></g><g fill="#03989e" fill-opacity="1"><g transform="translate(183.485733, 192.41278)"><g><path d="M 5.9375 0 L 2.609375 0 L 2.609375 -19.796875 L 5.9375 -19.796875 Z M 5.9375 0 "/></g></g></g><g fill="#03989e" fill-opacity="1"><g transform="translate(196.263524, 192.41278)"><g><path d="M 11.375 -19.875 C 12.769531 -19.875 14.128906 -19.601562 15.453125 -19.0625 C 16.785156 -18.53125 17.929688 -17.785156 18.890625 -16.828125 L 16.9375 -14.390625 C 16.21875 -15.160156 15.367188 -15.769531 14.390625 -16.21875 C 13.410156 -16.675781 12.421875 -16.90625 11.421875 -16.90625 C 9.441406 -16.90625 7.769531 -16.234375 6.40625 -14.890625 C 5.039062 -13.546875 4.359375 -11.898438 4.359375 -9.953125 C 4.359375 -7.992188 5.039062 -6.335938 6.40625 -4.984375 C 7.769531 -3.640625 9.441406 -2.96875 11.421875 -2.96875 C 13.484375 -2.96875 15.320312 -3.75 16.9375 -5.3125 L 18.921875 -3.109375 C 17.898438 -2.109375 16.710938 -1.316406 15.359375 -0.734375 C 14.003906 -0.148438 12.632812 0.140625 11.25 0.140625 C 8.351562 0.140625 5.914062 -0.820312 3.9375 -2.75 C 1.957031 -4.6875 0.96875 -7.078125 0.96875 -9.921875 C 0.96875 -12.734375 1.96875 -15.09375 3.96875 -17 C 5.976562 -18.914062 8.445312 -19.875 11.375 -19.875 Z M 11.375 -19.875 "/></g></g></g><g fill="#03989e" fill-opacity="1"><g transform="translate(220.206257, 192.41278)"><g><path d="M 15.390625 -4.46875 L 5.40625 -4.46875 L 3.5 0 L 0.03125 0 L 8.765625 -19.796875 L 12.1875 -19.796875 L 20.84375 0 L 17.28125 0 Z M 14.109375 -7.4375 L 10.375 -16.234375 L 6.640625 -7.4375 Z M 14.109375 -7.4375 "/></g></g></g><g fill="#03989e" fill-opacity="1"><g transform="translate(245.307874, 192.41278)"><g><path d="M 5.9375 -3.03125 L 14.515625 -3.03125 L 14.515625 0 L 2.609375 0 L 2.609375 -19.796875 L 5.9375 -19.796875 Z M 5.9375 -3.03125 "/></g></g></g><g fill="#03989e" fill-opacity="1"><g transform="translate(264.643307, 192.41278)"><g><path d="M 5.9375 0 L 2.609375 0 L 2.609375 -19.796875 L 5.9375 -19.796875 Z M 5.9375 0 "/></g></g></g><g fill="#03989e" fill-opacity="1"><g transform="translate(277.421105, 192.41278)"><g><path d="M 15.859375 -16.796875 L 5.9375 -16.796875 L 5.9375 -11.09375 L 14.9375 -11.09375 L 14.9375 -8.109375 L 5.9375 -8.109375 L 5.9375 0 L 2.609375 0 L 2.609375 -19.796875 L 15.890625 -19.796875 Z M 15.859375 -16.796875 "/></g></g></g><g fill="#03989e" fill-opacity="1"><g transform="translate(297.915423, 192.41278)"><g><path d="M 16.75 -16.796875 L 5.9375 -16.796875 L 5.9375 -11.453125 L 15.609375 -11.453125 L 15.609375 -8.453125 L 5.9375 -8.453125 L 5.9375 -3 L 17.078125 -3 L 17.078125 0 L 2.609375 0 L 2.609375 -19.796875 L 16.75 -19.796875 Z M 16.75 -16.796875 "/></g></g></g><g fill="#a6a6a6" fill-opacity="1"><g transform="translate(153.068088, 212.438014)"><g><path d="M 6.984375 0 L 5.8125 0 L 5.8125 -2.90625 L 2.09375 -2.90625 L 2.09375 0 L 0.921875 0 L 0.921875 -7 L 2.09375 -7 L 2.09375 -3.953125 L 5.8125 -3.953125 L 5.8125 -7 L 6.984375 -7 Z M 6.984375 0 "/></g></g></g><g fill="#a6a6a6" fill-opacity="1"><g transform="translate(163.474963, 212.438014)"><g><path d="M 5.921875 -5.9375 L 2.09375 -5.9375 L 2.09375 -4.046875 L 5.515625 -4.046875 L 5.515625 -2.984375 L 2.09375 -2.984375 L 2.09375 -1.0625 L 6.046875 -1.0625 L 6.046875 0 L 0.921875 0 L 0.921875 -7 L 5.921875 -7 Z M 5.921875 -5.9375 "/></g></g></g><g fill="#a6a6a6" fill-opacity="1"><g transform="translate(172.532375, 212.438014)"><g><path d="M 5.4375 -1.578125 L 1.90625 -1.578125 L 1.234375 0 L 0.015625 0 L 3.09375 -7 L 4.3125 -7 L 7.375 0 L 6.109375 0 Z M 4.984375 -2.625 L 3.671875 -5.734375 L 2.34375 -2.625 Z M 4.984375 -2.625 "/></g></g></g><g fill="#a6a6a6" fill-opacity="1"><g transform="translate(182.409458, 212.438014)"><g><path d="M 2.09375 -1.0625 L 5.125 -1.0625 L 5.125 0 L 0.921875 0 L 0.921875 -7 L 2.09375 -7 Z M 2.09375 -1.0625 "/></g></g></g><g fill="#a6a6a6" fill-opacity="1"><g transform="translate(190.247341, 212.438014)"><g><path d="M 5.703125 -5.9375 L 3.484375 -5.9375 L 3.484375 0 L 2.296875 0 L 2.296875 -5.9375 L 0.09375 -5.9375 L 0.09375 -7 L 5.703125 -7 Z M 5.703125 -5.9375 "/></g></g></g><g fill="#a6a6a6" fill-opacity="1"><g transform="translate(198.535046, 212.438014)"><g><path d="M 6.984375 0 L 5.8125 0 L 5.8125 -2.90625 L 2.09375 -2.90625 L 2.09375 0 L 0.921875 0 L 0.921875 -7 L 2.09375 -7 L 2.09375 -3.953125 L 5.8125 -3.953125 L 5.8125 -7 L 6.984375 -7 Z M 6.984375 0 "/></g></g></g><g fill="#a6a6a6" fill-opacity="1"><g transform="translate(208.941922, 212.438014)"><g/></g></g><g fill="#a6a6a6" fill-opacity="1"><g transform="translate(214.020901, 212.438014)"><g><path d="M 4.015625 -7.03125 C 4.515625 -7.03125 5 -6.929688 5.46875 -6.734375 C 5.9375 -6.546875 6.34375 -6.285156 6.6875 -5.953125 L 5.984375 -5.09375 C 5.734375 -5.363281 5.429688 -5.578125 5.078125 -5.734375 C 4.734375 -5.898438 4.390625 -5.984375 4.046875 -5.984375 C 3.335938 -5.984375 2.742188 -5.742188 2.265625 -5.265625 C 1.785156 -4.785156 1.546875 -4.203125 1.546875 -3.515625 C 1.546875 -2.828125 1.785156 -2.242188 2.265625 -1.765625 C 2.742188 -1.285156 3.335938 -1.046875 4.046875 -1.046875 C 4.765625 -1.046875 5.410156 -1.320312 5.984375 -1.875 L 6.6875 -1.09375 C 6.332031 -0.738281 5.910156 -0.457031 5.421875 -0.25 C 4.941406 -0.0507812 4.460938 0.046875 3.984375 0.046875 C 2.953125 0.046875 2.085938 -0.289062 1.390625 -0.96875 C 0.691406 -1.65625 0.34375 -2.503906 0.34375 -3.515625 C 0.34375 -4.503906 0.695312 -5.335938 1.40625 -6.015625 C 2.113281 -6.691406 2.984375 -7.03125 4.015625 -7.03125 Z M 4.015625 -7.03125 "/></g></g></g><g fill="#a6a6a6" fill-opacity="1"><g transform="translate(223.488146, 212.438014)"><g><path d="M 5.921875 -5.9375 L 2.09375 -5.9375 L 2.09375 -4.046875 L 5.515625 -4.046875 L 5.515625 -2.984375 L 2.09375 -2.984375 L 2.09375 -1.0625 L 6.046875 -1.0625 L 6.046875 0 L 0.921875 0 L 0.921875 -7 L 5.921875 -7 Z M 5.921875 -5.9375 "/></g></g></g><g fill="#a6a6a6" fill-opacity="1"><g transform="translate(232.54556, 212.438014)"><g><path d="M 6.984375 0 L 5.828125 0 L 2.09375 -5.015625 L 2.09375 0 L 0.921875 0 L 0.921875 -7 L 2.078125 -7 L 5.828125 -1.96875 L 5.828125 -7 L 6.984375 -7 Z M 6.984375 0 "/></g></g></g><g fill="#a6a6a6" fill-opacity="1"><g transform="translate(242.96243, 212.438014)"><g><path d="M 5.703125 -5.9375 L 3.484375 -5.9375 L 3.484375 0 L 2.296875 0 L 2.296875 -5.9375 L 0.09375 -5.9375 L 0.09375 -7 L 5.703125 -7 Z M 5.703125 -5.9375 "/></g></g></g><g fill="#a6a6a6" fill-opacity="1"><g transform="translate(251.250137, 212.438014)"><g><path d="M 5.921875 -5.9375 L 2.09375 -5.9375 L 2.09375 -4.046875 L 5.515625 -4.046875 L 5.515625 -2.984375 L 2.09375 -2.984375 L 2.09375 -1.0625 L 6.046875 -1.0625 L 6.046875 0 L 0.921875 0 L 0.921875 -7 L 5.921875 -7 Z M 5.921875 -5.9375 "/></g></g></g><g fill="#a6a6a6" fill-opacity="1"><g transform="translate(260.307552, 212.438014)"><g><path d="M 5.359375 0 L 4.078125 -2.125 C 4.015625 -2.113281 3.910156 -2.109375 3.765625 -2.109375 L 2.09375 -2.109375 L 2.09375 0 L 0.921875 0 L 0.921875 -7 L 3.765625 -7 C 4.648438 -7 5.335938 -6.789062 5.828125 -6.375 C 6.328125 -5.957031 6.578125 -5.367188 6.578125 -4.609375 C 6.578125 -4.046875 6.453125 -3.570312 6.203125 -3.1875 C 5.953125 -2.800781 5.59375 -2.519531 5.125 -2.34375 L 6.703125 0 Z M 2.09375 -3.171875 L 3.765625 -3.171875 C 4.890625 -3.171875 5.453125 -3.640625 5.453125 -4.578125 C 5.453125 -5.484375 4.890625 -5.9375 3.765625 -5.9375 L 2.09375 -5.9375 Z M 2.09375 -3.171875 "/></g></g></g></svg>